{"accessors" : [{"bufferView" : 0, "byteOffset" : 0, "componentType" : 5123, "count" : 42642, "type" : "SCALAR", "max" : [35361], "min" : [0]}, {"bufferView" : 1, "byteOffset" : 0, "componentType" : 5126, "count" : 35362, "type" : "VEC3", "max" : [478.4818115234375, 61.19451141357422, 380.0772705078125], "min" : [-521.5181884765625, -149.03756713867188, -388.9912109375], "name" : "POSITION"}, {"bufferView" : 1, "byteOffset" : 12, "componentType" : 5126, "count" : 35362, "type" : "VEC3", "max" : [0.9992817044258118, 1.0000032186508179, 0.9996045231819153], "min" : [-0.9993736743927002, -0.9999349117279053, -0.9997888803482056], "name" : "NORMAL"}, {"bufferView" : 1, "byteOffset" : 24, "componentType" : 5126, "count" : 35362, "type" : "VEC2", "max" : [0.997626543045044, 0.9771486520767212], "min" : [0.0005139932036399841, 0.0005318522453308105], "name" : "TEXCOORD_0"}], "asset" : {"generator" : "Aspose.3D 22.1", "version" : "2.0"}, "buffers" : [{"uri" : "data:application/octet-stream;base64,", "byteLength" : 1449836}], "bufferViews" : [{"buffer" : 0, "byteOffset" : 0, "byteLength" : 85284, "target" : 34963}, {"buffer" : 0, "byteOffset" : 85288, "byteLength" : 1364544, "byteStride" : 32, "target" : 34962}], "images" : [{"uri" : "data:image/jpeg;base64,"}], "materials" : [{"name" : "material", "pbrMetallicRoughness" : {"baseColorFactor" : [1, 1, 1, 1], "baseColorTexture" : {"index" : 0, "texCoord" : 0}, "metallicFactor" : 0, "roughnessFactor" : 1}, "emissiveFactor" : [0, 0, 0], "alphaMode" : "OPAQUE", "doubleSided" : false}], "meshes" : [{"primitives" : [{"attributes" : {"POSITION" : 1, "NORMAL" : 2, "TEXCOORD_0" : 3}, "indices" : 0, "material" : 0, "mode" : 4}]}], "nodes" : [{"mesh" : 0, "name" : "Node #0"}], "samplers" : [{"magFilter" : 9728, "minFilter" : 9728, "wrapS" : 10497, "wrapT" : 10497}], "scene" : 0, "scenes" : [{"nodes" : [0]}], "textures" : [{"sampler" : 0, "source" : 0}]}